<svg width="231" height="24" viewBox="0 0 231 24" fill="none" xmlns="http://www.w3.org/2000/svg">
<path d="M211.717 9.88235C221.358 9.88235 221.358 0 231 0L231 24H0L3.05176e-05 0C9.57481 0 9.57481 9.88235 19.2166 9.88235C28.8583 9.88235 28.8583 0 38.2322 0C47.8739 0 47.8739 9.88235 57.5157 9.88235C67.1574 9.88235 67.1574 0 76.7992 0C86.4409 0 86.4409 9.88235 96.0826 9.88235C105.724 9.88235 105.724 0 115.366 0C125.008 0 125.008 9.88235 134.65 9.88235C144.224 9.88235 144.224 0 153.866 0C163.508 0 163.508 9.88235 173.15 9.88235C182.791 9.88235 182.791 0 192.433 0C202.075 0 202.075 9.88235 211.717 9.88235Z" fill="white"/>
</svg>
