<svg width="375" height="34" viewBox="0 0 375 34" fill="none" xmlns="http://www.w3.org/2000/svg">
<path d="M343.696 14.0001C359.348 14.0001 359.348 6.10352e-05 375 6.10352e-05L375 34L3.05176e-05 34.0001L0 6.10352e-05C15.5435 6.10352e-05 15.5435 14.0001 31.1957 14.0001C46.8478 14.0001 46.8479 6.10352e-05 62.0653 6.10352e-05C77.7174 6.10352e-05 77.7173 14.0001 93.3695 14.0001C109.022 14.0001 109.022 6.10352e-05 124.674 6.10352e-05C140.326 6.10352e-05 140.326 14.0001 155.978 14.0001C171.63 14.0001 171.63 6.10352e-05 187.282 6.10352e-05C202.935 6.10352e-05 202.935 14.0001 218.587 14.0001C234.13 14.0001 234.13 6.10352e-05 249.782 6.10352e-05C265.435 6.10352e-05 265.435 14.0001 281.087 14.0001C296.739 14.0001 296.739 6.10352e-05 312.391 6.10352e-05C328.043 6.10352e-05 328.043 14.0001 343.696 14.0001Z" fill="white"/>
</svg>
