<svg width="23" height="22" viewBox="0 0 23 22" xmlns="http://www.w3.org/2000/svg">
<path d="M22.599 12.6C22.599 10.2 22.299 7.80003 22.299 5.50003C22.299 4.70003 22.199 4.00003 22.099 3.20003C21.999 2.90003 21.999 2.50003 21.899 2.10003C21.599 1.90003 21.699 1.50003 21.399 1.30003C20.999 1.10003 20.199 1.20003 19.699 1.10003C18.999 1.10003 18.399 1.00002 17.799 0.900024C15.899 0.800024 13.799 0.800026 11.799 0.800026C9.79901 0.800026 7.79901 0.700024 6.09901 0.400024H3.89901C3.79901 0.400024 3.79901 0.500027 3.69901 0.500027C3.09901 0.500027 2.59901 0.700026 2.09901 0.800026C1.89901 0.900026 1.69901 1.00003 1.39901 1.10003C1.29901 1.30003 0.899007 1.20003 0.799007 1.50003C0.599007 1.70003 0.999007 2.00003 0.799007 2.10003V3.00003C0.999007 3.10003 0.799009 3.60003 0.899009 3.80003V4.80003C0.899009 6.10003 0.999008 7.20003 0.999008 8.50003C1.49901 11.3 1.39901 15 1.09901 17.9C1.29901 18.5 1.49901 19 1.59901 19.6C1.89901 20.1 1.89901 20.7 2.29901 21.1C2.79901 21.3 3.49901 21.3 4.19901 21.3C4.59901 21.4 4.89901 21.6 5.29901 21.6C8.09901 21.4 10.799 21.4 13.699 21.4C16.399 21.6 19.499 21.6 21.999 21.2C22.199 21.1 22.099 20.7 22.199 20.4C22.099 20 22.399 20 22.399 19.6C22.599 17.5 22.599 15.1 22.599 12.6ZM9.59901 6.40002C10.399 6.20002 11.099 6.10003 11.999 6.10003C12.699 6.20003 13.299 6.40003 13.899 6.60003C13.999 6.80002 13.699 7.10003 14.099 7.30003C14.199 7.30003 14.199 7.30002 14.299 7.40002C14.699 7.40002 15.099 7.60003 15.399 7.80003C15.899 7.90003 15.899 8.30003 16.499 8.20003C16.399 8.40003 16.399 8.70003 16.399 9.00003C16.699 10.2 16.899 11.8 16.699 13.3C16.499 13.5 16.499 13.7 16.399 14C16.099 14.3 15.899 14.8 15.599 15.1C15.499 15.3 15.299 15.5 15.099 15.6C14.999 15.8 14.899 16.1 14.599 16.1C14.299 16.3 13.999 16.1 13.799 16C13.399 16.2 12.899 16.3 12.599 16.6C11.799 16.5 10.999 16.4 10.199 16.3C9.99901 16.2 9.69901 16 9.39901 16C9.19901 15.8 8.89901 15.6 8.59901 15.5C8.49901 15.4 8.29901 15.4 8.09901 15.3C7.89901 15.3 7.89901 15.1 7.59901 15.1C7.49901 14.7 7.19901 14.5 7.09901 14C6.89901 13.7 6.79901 13.2 6.59901 12.8C6.59901 11.4 6.69901 10.1 6.99901 9.00003C7.29901 8.40003 7.79901 7.90003 8.09901 7.30003C8.29901 7.30003 8.49901 7.20003 8.49901 7.00003C8.79901 7.10003 8.89901 6.90002 9.19901 6.90002C9.39901 6.90002 9.39901 6.60002 9.59901 6.40002ZM7.89901 3.70003C7.79901 3.40003 7.79901 3.00003 7.79901 2.60003C7.79901 2.30003 8.09901 2.30003 8.09901 2.10003C8.09901 2.00003 7.99901 2.00003 7.89901 2.00003C7.99901 1.90003 8.59901 1.90003 8.69901 2.00003C8.79901 2.50003 8.29901 2.50003 8.19901 2.70003C8.19901 2.90003 8.49901 2.70003 8.69901 2.80003C8.69901 3.70003 8.59901 4.30003 8.69901 5.00003H8.19901C8.19901 5.20003 8.39901 5.20003 8.69901 5.20003C8.59901 5.50003 8.79901 5.60003 8.79901 5.80003C8.59901 6.00003 8.09901 5.80002 7.69901 5.90002C7.69901 5.30002 7.99901 4.50003 7.89901 3.70003ZM7.19901 2.10003C7.29901 2.10003 7.29901 2.10003 7.39901 2.20003C7.59901 2.50003 7.39901 2.90003 7.29901 3.10003C7.09901 2.90003 7.29901 2.40003 7.19901 2.10003ZM7.39901 3.90002C7.29901 3.80002 7.19901 3.70002 7.19901 3.40002C7.39901 3.50002 7.39901 3.70002 7.39901 3.90002ZM7.39901 5.30003C7.29901 5.40003 7.29901 5.30002 7.29901 5.10003C7.39901 5.00003 7.39901 5.20003 7.39901 5.30003ZM7.19901 5.50003C7.39901 5.50003 7.29901 5.70003 7.39901 5.70003C7.39901 5.90003 7.09901 5.90003 6.99901 5.80003C7.09901 5.70003 7.19901 5.60003 7.19901 5.50003ZM4.89901 4.30003C4.89901 4.20003 4.89901 4.10003 4.79901 4.10003C4.69901 3.40003 4.89901 2.70003 4.79901 2.10003C5.09901 1.90003 5.59901 2.10003 5.89901 2.00003V3.10003C5.79901 3.20003 5.69901 3.20003 5.49901 3.20003C5.39901 3.50003 5.79901 3.30003 5.89901 3.50003C5.89901 4.40003 5.79901 5.30002 6.09901 5.90002C5.49901 5.80002 5.19901 6.00003 4.69901 6.00003C4.79901 5.40003 4.69901 4.60002 5.19901 4.40002C5.19901 4.30002 4.89901 4.40003 4.89901 4.30003ZM4.39901 4.30003C4.19901 4.30003 4.19901 3.80003 4.29901 3.70003C4.59901 3.70003 4.49901 4.20003 4.39901 4.30003ZM4.19901 5.30003C4.29901 5.00003 4.19901 5.00003 4.29901 4.60003C4.49901 4.60003 4.49901 5.40003 4.19901 5.30003ZM4.39901 3.20003C4.09901 3.30003 4.09901 2.90003 4.19901 2.80003C4.49901 2.80003 4.59901 3.10003 4.39901 3.20003ZM4.39901 2.10003C4.39901 2.30003 4.29901 2.30002 4.29901 2.40002C4.09901 2.40002 4.19901 2.20003 4.09901 2.20003C4.19901 2.10003 4.29901 2.10003 4.39901 2.10003ZM4.19901 5.80003C4.29901 5.80003 4.29901 6.10003 4.09901 6.00003C4.19901 6.00003 4.19901 5.90003 4.19901 5.80003ZM3.49901 2.10003C3.49901 2.40003 3.09901 2.40003 3.09901 2.10003H3.49901ZM2.49901 2.20003C2.49901 2.40003 2.19901 2.40003 2.09901 2.60003C1.89901 2.40003 2.19901 2.10003 2.49901 2.20003ZM2.09901 2.90002C2.29901 2.70002 2.59901 2.50003 2.79901 2.30003C2.79901 2.20003 2.89901 2.20003 2.89901 2.10003H3.09901C3.19901 2.50003 2.79901 2.40003 2.79901 2.60003C2.79901 2.70003 2.69901 2.70003 2.69901 2.80003C2.69901 3.10003 2.79901 3.40003 2.79901 3.80003C2.49901 3.80003 2.49901 4.10003 2.19901 4.00003C2.19901 3.60003 1.99901 3.40002 2.09901 2.90002ZM2.19901 6.20003V4.60003C2.39901 4.40003 2.59901 4.20003 2.79901 4.10003C3.09901 4.60003 2.99901 5.50003 3.29901 6.00003C2.89901 6.10003 2.49901 6.10003 2.19901 6.20003ZM20.399 17.3C20.299 18.3 20.199 19.3 19.999 20.1C17.099 20.2 13.999 20.1 11.099 20.3C10.899 20.3 10.799 20.3 10.899 20.1C10.599 20.1 10.599 20.3 10.399 20.3C10.599 20 10.799 19.4 10.599 19C9.79901 19 9.79901 19.8 9.49901 20.3C8.79901 20.2 8.39901 20.4 7.69901 20.4C7.89901 19.7 8.39901 19.4 8.59901 18.7C8.19901 18.2 7.59901 18.8 7.39901 19.2C7.19901 19.7 6.79901 20 6.59901 20.5H5.59901C5.79901 20 6.09901 19.6 6.39901 19.1C6.59901 18.6 6.99901 18.4 7.09901 17.7C6.89901 17.4 6.69901 17.7 6.39901 17.7C6.29901 17.9 6.09901 18 5.99901 18.2C5.79901 18.6 5.49901 18.9 5.29901 19.3C5.09901 19.5 4.99901 19.3 4.79901 19.5C4.39901 19.8 4.19901 20.2 3.79901 20.5C3.59901 20.4 3.79901 20.1 3.99901 20.1C3.99901 19.9 3.89901 19.6 4.09901 19.5C4.19901 19.1 4.29901 18.9 4.49901 18.6C4.59901 17.9 4.99901 17.4 5.19901 16.7C4.59901 16.8 4.49901 17.3 4.19901 17.7C3.99901 18.1 3.69901 18.5 3.49901 19C3.29901 18.9 3.49901 18.4 3.39901 18.2C3.49901 17.6 3.69901 17.1 3.79901 16.5C3.89901 16.3 3.99901 16 3.99901 15.7C4.19901 15.5 3.99901 15.1 3.89901 14.9C3.69901 14.9 3.49901 15 3.39901 15.2C3.19901 15.2 3.19901 15.7 3.09901 15.5C3.09901 12.9 2.59901 10.7 2.59901 8.10003C2.59901 7.80002 2.39901 7.70002 2.39901 7.40002C3.99901 7.40002 5.49901 7.50003 7.19901 7.60003C7.09901 7.70003 6.99901 7.90003 6.89901 8.00003C6.79901 8.10003 6.69901 8.20003 6.49901 8.30003C5.89901 10 5.49901 12.3 5.89901 14.5C6.09901 15.1 6.49901 15.5 6.89901 15.9C7.79901 16.4 8.49901 17 9.39901 17.6C11.099 18 13.199 18 14.899 17.6C15.099 17.5 15.399 17.4 15.599 17.2C16.999 16 18.399 14.7 18.599 12.3V10.9C18.399 9.30002 17.899 8.00003 16.899 7.30003C17.199 7.10003 17.999 7.30002 18.599 7.40002C18.799 7.40002 18.999 7.40002 19.299 7.40002C19.699 7.40002 20.199 7.30002 20.699 7.40002C20.799 7.60002 20.799 7.90003 20.899 8.20003C20.799 9.90003 20.699 11.5 20.699 13.3C20.799 13.8 20.799 14.3 20.899 14.7C20.699 15.5 20.599 16.4 20.399 17.3ZM20.799 6.10003C20.199 6.00003 19.599 5.80003 18.899 5.70003C18.999 5.40003 19.699 5.70003 19.899 5.50003C20.299 5.30003 20.199 4.60003 20.199 4.00003C20.199 3.70003 20.299 3.40002 20.299 2.90002C19.899 1.90002 18.499 2.50002 17.399 2.40002C17.199 3.10002 16.899 4.20003 17.099 5.10003C17.299 5.60003 18.099 5.40003 18.599 5.60003C18.499 5.90003 17.899 5.70003 17.599 5.70003C17.299 5.60003 16.899 5.60003 16.599 5.50003C14.299 5.60003 12.299 5.50003 10.099 5.70003C10.199 4.50003 10.199 3.20003 9.99901 2.10003H13.099C12.799 2.50003 12.199 2.60002 11.799 2.90002C11.399 3.10002 10.899 3.40003 10.699 3.80003C10.899 3.90003 11.199 3.60002 11.499 3.40002C11.899 3.30002 11.999 3.00002 12.299 2.90002C12.699 2.50002 13.399 2.30003 13.999 2.00003C14.399 2.00003 14.699 2.00003 14.999 2.10003C16.299 2.10003 17.499 2.20003 18.799 2.20003C19.399 2.30003 20.299 2.30003 20.799 2.50003C20.899 2.80003 20.999 3.10002 21.099 3.40002C20.999 4.40002 20.799 5.20003 20.799 6.10003ZM14.899 2.40002C14.999 2.30002 14.899 2.30002 14.899 2.40002V2.40002ZM14.899 2.40002C14.399 2.60002 13.899 2.70003 13.499 3.10003C13.999 2.90003 14.599 2.80002 14.899 2.40002ZM15.999 3.00003C16.099 2.90003 15.999 2.90003 15.999 3.00003V3.00003ZM14.199 3.90002C14.899 3.70002 15.399 3.30003 15.899 3.00003C15.499 3.00003 15.299 3.30002 14.899 3.40002C14.799 3.60002 14.399 3.60002 14.199 3.90002ZM13.499 3.10003C13.399 3.10003 13.599 3.20003 13.499 3.10003V3.10003ZM12.899 3.70003C12.999 3.60003 12.899 3.60003 12.899 3.70003V3.70003ZM12.799 3.80003C12.899 3.80003 12.899 3.70003 12.799 3.80003C12.799 3.70003 12.799 3.70003 12.799 3.80003ZM12.699 3.80003C12.799 3.80003 12.799 3.80003 12.699 3.80003C12.699 3.70003 12.699 3.80003 12.699 3.80003ZM11.899 4.40002C12.199 4.30002 12.499 4.10003 12.699 3.80003C12.399 4.00003 12.099 4.20002 11.899 4.40002ZM14.199 5.40002C14.699 5.40002 14.899 5.00002 15.399 4.90002C15.699 4.60002 16.199 4.50003 16.399 4.10003C15.799 4.10003 15.599 4.50003 15.199 4.60003C14.899 5.00003 14.399 5.10002 14.199 5.40002ZM11.899 4.40002C11.599 4.40002 11.899 4.70002 11.899 4.40002V4.40002ZM11.299 4.80003C11.399 4.80003 11.499 4.80003 11.299 4.80003C11.399 4.70003 11.299 4.80003 11.299 4.80003ZM14.199 5.40002C13.999 5.50002 14.199 5.50002 14.199 5.40002V5.40002ZM12.999 7.20003C12.799 7.00003 12.299 7.00003 11.999 6.80003C11.299 6.80003 10.799 6.90003 10.299 7.00003C9.99901 7.20003 9.69901 7.30003 9.39901 7.50003C9.09901 7.70003 8.99901 7.90003 8.59901 8.00003C8.39901 8.20003 8.19901 8.50002 7.89901 8.60003C7.89901 8.80002 7.69901 8.90003 7.59901 9.00003C7.49901 9.10003 7.49901 9.30002 7.39901 9.40002C7.39901 9.50002 7.39901 9.70003 7.29901 9.70003C7.39901 11.2 7.59901 12.6 7.99901 13.9C8.29901 14.5 8.99901 14.7 9.39901 15.2C9.99901 15.5 10.699 15.6 11.499 15.7C11.799 15.6 12.099 15.6 12.399 15.6C13.599 15.4 14.499 14.9 15.199 14.2C15.299 13.9 15.499 13.7 15.699 13.5C15.399 12.8 15.999 12.4 16.199 11.9C16.199 10.6 15.999 9.40003 15.599 8.50003C15.299 7.90003 14.699 7.70002 14.199 7.40002C14.099 7.40002 13.999 7.40003 13.999 7.30003C13.799 7.20003 13.299 7.10003 12.999 7.20003ZM9.59901 11.6C9.49901 11.5 9.49901 11.4 9.39901 11.2C9.69901 11.1 9.59901 11.4 9.59901 11.6ZM9.69901 11.9C9.69901 11.8 9.79901 11.9 9.69901 11.9C9.69901 12.1 9.69901 12 9.69901 11.9ZM10.099 9.80003C10.099 9.70003 10.199 9.80003 10.099 9.80003C10.199 9.90003 10.099 9.90003 10.099 9.80003ZM11.799 7.70003C11.599 8.00003 11.799 8.30003 11.899 8.50003C11.599 8.50003 11.299 7.70003 11.799 7.70003ZM12.199 11.6C12.099 11.6 12.199 11.6 12.199 11.6C12.299 11.6 12.199 11.7 12.199 11.6ZM12.899 14.5C12.899 14.4 12.999 14.5 13.099 14.5C13.099 14.6 12.899 14.6 12.899 14.5ZM15.099 12C14.899 11.9 14.999 12.2 14.699 12.2C14.799 12 14.799 11.9 14.899 11.7C15.099 11.7 15.199 11.8 15.099 12ZM13.999 8.20003C14.199 8.30003 14.399 8.40003 14.599 8.60003C14.699 8.80002 14.799 9.00002 14.999 9.10003C15.099 9.90003 15.199 10.6 15.199 11.5C14.899 11.6 14.799 11.8 14.499 11.9C13.699 11.9 13.099 11.7 12.599 11.4C12.399 11.1 12.199 10.9 12.099 10.6V9.50003C12.299 9.30003 12.399 9.10002 12.599 8.90002C12.799 8.80002 13.099 8.70003 13.099 8.30003C13.099 8.20003 12.999 8.20003 12.999 8.10003C13.199 8.10003 13.199 8.30003 13.399 8.30003C13.599 8.30003 13.699 8.10003 13.999 8.20003Z"/>
</svg>
