<svg width="25" height="20" viewBox="0 0 25 20" fill="none" xmlns="http://www.w3.org/2000/svg">
<path d="M24.225 4.29998C24.025 3.89998 23.325 3.99997 22.825 3.89997H21.725C21.825 3.49997 22.025 3.29997 22.225 2.89997C22.325 2.49997 22.525 2.19998 22.425 1.59998C22.525 1.39998 22.625 1.19997 22.725 0.999973C22.825 0.899973 22.925 0.499976 22.825 0.299976C22.725 0.0999763 22.525 0.0999756 22.225 0.0999756C22.125 0.0999756 22.025 0.199974 22.025 0.199974C21.625 0.599974 21.225 1.19998 20.725 1.59998H20.625C20.525 1.59998 20.625 1.59997 20.525 1.69997C20.425 1.79997 20.225 1.89997 20.125 1.89997C19.825 2.09997 19.625 2.29997 19.225 2.39997C18.725 2.19997 18.025 2.09997 17.325 1.99997C16.125 2.09997 15.025 2.19997 14.325 2.69997C13.425 2.99997 12.825 3.69998 12.225 4.29998C12.225 4.59998 11.925 4.69997 11.825 4.99997C11.825 4.99997 11.825 5.09998 11.725 5.09998C11.725 5.29998 11.625 5.39998 11.625 5.59998C11.625 5.69998 11.825 5.99998 11.625 6.09998C10.825 5.99998 10.125 5.49998 9.52501 5.09998C8.82501 4.69998 8.02501 4.49997 7.42501 3.99997C6.72502 3.69997 6.12501 3.19997 5.62501 2.69997C5.42501 2.39997 5.12501 2.19998 4.92501 1.79998C4.52501 1.59998 4.72501 0.899975 4.22501 0.899975C3.92501 0.899975 3.92501 1.09998 3.82501 1.29998C3.72501 1.49998 3.42501 1.49998 3.42501 1.79998C3.42501 1.79998 3.42501 1.89997 3.32501 1.89997C3.12501 2.99997 2.82501 3.89997 2.82501 5.19997C2.92501 5.59997 3.12502 5.89997 3.42501 6.19997C3.02501 6.29997 2.72501 6.39997 2.52501 6.69997C2.42501 7.79997 2.92501 8.29997 3.22501 8.99997C3.32501 9.39997 3.62501 9.69997 3.82501 9.99997C3.82501 10.2 4.02501 10.3 4.12501 10.4C4.12501 10.5 4.22501 10.5 4.22501 10.6C4.22501 10.7 4.52501 10.8 4.32501 10.8C3.92501 10.9 3.32501 10.9 3.02501 11.2C2.92501 11.5 2.92501 12 3.02501 12.3C3.02501 12.5 3.32501 12.6 3.32501 12.8C3.82501 13.2 4.42501 13.5 4.92501 13.9C5.52501 14.1 6.12501 14.2 6.82501 14.3C6.72501 14.6 6.52501 14.9 6.22501 15C5.42501 15.4 4.42501 15.5 3.52501 15.7C2.92501 15.7 2.52501 15.9 1.92501 15.9C1.62501 16 1.02501 16 0.825013 16.1C0.725013 16.2 0.725012 16.2 0.625012 16.3C0.525012 16.7 0.725013 17 1.02501 17.2C1.02501 17.5 1.22501 17.5 1.42501 17.6C1.52501 17.8 1.72501 17.9 1.82501 18C2.32501 18.5 3.12501 18.8 3.72501 19.1C4.52501 19.3 5.32501 19.5 6.22501 19.6C7.12501 19.7 8.12501 19.7 9.02501 19.8H10.025C10.525 19.9 11.225 19.9 11.925 19.9C12.025 19.8 12.225 19.8 12.425 19.8C12.925 19.5 13.625 19.4 14.025 19.1C14.625 18.9 15.025 18.5 15.625 18.2C16.525 17.4 17.525 16.9 18.125 15.8C18.325 15.6 18.525 15.4 18.525 15.1C18.825 14.9 18.925 14.6 19.125 14.4C19.525 14 19.825 13.5 20.125 13C20.425 12.5 20.725 11.9 21.025 11.4C21.025 11 21.325 10.9 21.325 10.5C21.525 10.3 21.525 9.79998 21.725 9.59998C21.725 9.29998 21.725 9.19997 21.825 8.99997C21.825 7.69997 21.825 6.59998 21.525 5.59998C22.125 5.39998 22.725 5.29997 23.125 4.99997C23.925 5.29997 24.425 4.89998 24.225 4.29998ZM20.825 8.29998C20.625 9.19998 20.225 9.69998 19.825 10.3C19.925 10.7 19.725 10.8 19.725 11.2C19.525 11.5 19.425 11.9 19.325 12.2C19.125 12.5 19.025 12.8 18.825 13.1C18.425 13.6 18.025 14.2 17.625 14.7C17.225 15.3 16.725 15.7 16.325 16.2C15.925 16.7 15.425 17.1 14.925 17.5C14.425 17.7 14.025 17.9 13.625 18.2C13.425 18.3 13.125 18.4 12.925 18.5C12.725 18.6 12.425 18.6 12.225 18.8C11.125 18.9 9.92501 19 8.62501 18.9C7.62501 18.8 6.52501 18.7 5.62501 18.5C4.72501 18.3 4.12501 17.8 3.32501 17.5C3.52501 17.3 3.92501 17.3 4.32501 17.3C4.32501 17.1 4.72501 17.3 4.72501 17.2C5.02501 17.3 5.02501 17.1 5.22501 17.1C5.82501 16.9 6.42501 16.8 6.92501 16.5C7.22502 16.4 7.32501 16.1 7.62501 15.9C7.62501 15.7 7.72501 15.6 7.82501 15.5C7.82501 15.2 8.02501 15.1 7.92501 14.7C8.02501 14.5 8.22501 14.4 8.22501 14C8.12501 13.9 8.12501 13.7 7.92501 13.6C7.92501 13.4 7.52501 13.5 7.52501 13.4C7.22501 13.4 7.12501 13.4 6.92501 13.3C6.72502 13.3 6.42501 13.4 6.42501 13.2C5.62501 13.2 5.12501 12.8 4.52501 12.5C4.92501 12.2 5.52501 12.1 5.82501 11.8C6.32501 11.7 6.92501 11.7 6.92501 11.1C6.92501 10.4 6.12501 10.4 5.62501 10.3C4.82501 9.59998 4.42501 8.59998 3.82501 7.79998C4.02501 7.59998 4.42501 7.59997 4.52501 7.39997C5.02501 7.49997 5.02501 7.09997 5.22501 6.89997C5.22501 6.39997 4.92501 6.29998 4.62501 6.09998C4.32501 5.89998 4.12502 5.59997 3.92501 5.39997C3.92501 4.59997 3.92501 3.69997 4.02501 2.99997C4.12501 2.99997 4.12501 2.99998 4.12501 3.09998C4.32501 3.49998 4.72502 3.89998 4.92501 4.29998C5.42501 4.69998 5.82501 5.19998 6.52501 5.39997C7.02501 5.79997 7.62501 5.99997 8.12501 6.39997C8.72501 6.69998 9.32501 6.99998 9.82501 7.29998C10.525 7.49998 10.925 7.99997 11.825 7.89997C12.025 7.79997 12.225 7.69998 12.425 7.59998C12.725 7.09998 12.325 6.49997 12.525 5.99997C12.825 5.29997 13.325 4.99997 13.825 4.49997C14.125 4.29997 14.425 4.19997 14.625 3.99997C14.925 3.89997 15.325 3.79998 15.625 3.59998C16.025 3.59998 16.325 3.49997 16.625 3.49997H17.925C18.125 3.59997 18.425 3.59998 18.625 3.59998C18.825 3.69998 19.025 3.89997 19.325 3.99997C20.125 4.69997 20.625 5.69997 20.725 6.99997C20.725 7.29997 20.825 7.69998 20.825 8.29998ZM21.125 2.69997C21.025 2.99997 20.925 3.39997 20.525 3.49997C20.525 3.39997 20.425 3.39998 20.425 3.29998C20.425 3.09998 20.625 3.09997 20.725 2.99997C20.825 2.89997 20.925 2.69997 21.125 2.69997C21.125 2.59997 21.225 2.69997 21.125 2.69997ZM15.625 5.69997C15.825 5.79997 15.925 5.99998 16.125 6.09998C16.225 6.29998 16.425 6.39997 16.725 6.49997C16.725 6.29997 17.025 6.49998 17.125 6.29998C17.325 6.29998 17.325 6.09997 17.425 5.99997C17.425 5.49997 17.325 4.99997 17.025 4.69997C16.325 4.19997 15.325 4.69997 15.625 5.69997Z" fill="black"/>
</svg>
